<svg xmlns="http://www.w3.org/2000/svg" width="27.922" height="27.922" viewBox="0 0 27.922 27.922" fill="none">
  <path d="M 27.921 7.734 C 27.919 7.453 27.916 7.172 27.908 6.891 C 27.892 6.279 27.856 5.663 27.747 5.058 C 27.637 4.444 27.456 3.872 27.172 3.313 C 26.893 2.765 26.529 2.264 26.094 1.829 C 25.658 1.394 25.157 1.029 24.608 0.75 C 24.051 0.466 23.479 0.286 22.865 0.175 C 22.26 0.067 21.643 0.03 21.031 0.014 C 20.75 0.006 20.469 0.003 20.189 0.002 C 19.855 0 19.522 0 19.188 0 L 8.734 0 C 8.401 0 8.067 0 7.734 0.002 C 7.453 0.003 7.172 0.006 6.891 0.014 C 6.279 0.031 5.662 0.067 5.057 0.176 C 4.443 0.286 3.872 0.467 3.314 0.751 C 2.766 1.03 2.264 1.395 1.829 1.83 C 1.394 2.265 1.029 2.766 0.75 3.314 C 0.466 3.873 0.285 4.444 0.175 5.059 C 0.067 5.664 0.03 6.281 0.014 6.892 C 0.006 7.173 0.003 7.454 0.002 7.735 C 0 8.067 0 8.401 0 8.734 L 0 19.187 C 0 19.521 0 19.854 0.002 20.188 C 0.003 20.469 0.006 20.749 0.014 21.03 C 0.03 21.642 0.067 22.259 0.175 22.864 C 0.285 23.478 0.466 24.05 0.75 24.608 C 1.029 25.157 1.394 25.658 1.829 26.093 C 2.264 26.528 2.766 26.892 3.314 27.172 C 3.872 27.456 4.444 27.635 5.057 27.746 C 5.662 27.855 6.279 27.891 6.891 27.908 C 7.172 27.915 7.453 27.919 7.734 27.92 C 8.067 27.922 8.401 27.922 8.734 27.922 L 19.187 27.922 C 19.521 27.922 19.854 27.922 20.188 27.92 C 20.469 27.919 20.749 27.915 21.03 27.908 C 21.642 27.891 22.26 27.855 22.865 27.746 C 23.479 27.636 24.05 27.456 24.607 27.172 C 25.156 26.892 25.658 26.528 26.093 26.093 C 26.528 25.658 26.892 25.157 27.172 24.608 C 27.456 24.05 27.636 23.478 27.746 22.864 C 27.855 22.259 27.891 21.641 27.908 21.03 C 27.915 20.749 27.919 20.469 27.92 20.188 C 27.922 19.854 27.922 19.521 27.922 19.187 L 27.922 8.734 C 27.922 8.401 27.922 8.067 27.921 7.734 Z M 20.441 18.17 C 20.441 18.523 20.438 18.845 20.363 19.198 C 20.291 19.542 20.159 19.865 19.957 20.156 C 19.754 20.446 19.495 20.684 19.193 20.863 C 18.886 21.043 18.566 21.147 18.223 21.216 C 17.58 21.345 17.14 21.375 16.726 21.292 C 16.327 21.212 15.989 21.028 15.718 20.78 C 15.317 20.412 15.067 19.916 15.013 19.398 C 14.949 18.789 15.152 18.14 15.608 17.662 C 15.838 17.42 16.128 17.23 16.514 17.079 C 16.918 16.923 17.364 16.829 18.05 16.691 C 18.23 16.654 18.411 16.618 18.592 16.581 C 18.829 16.533 19.033 16.473 19.197 16.272 C 19.363 16.069 19.366 15.823 19.366 15.58 L 19.366 9.43 C 19.366 8.959 19.155 8.831 18.705 8.917 C 18.384 8.98 11.485 10.372 11.485 10.372 C 11.095 10.465 10.959 10.593 10.959 11.076 L 10.959 20.085 C 10.959 20.438 10.94 20.76 10.866 21.113 C 10.794 21.457 10.662 21.78 10.46 22.071 C 10.258 22.361 9.999 22.599 9.696 22.778 C 9.39 22.958 9.069 23.066 8.727 23.135 C 8.083 23.265 7.643 23.294 7.229 23.211 C 6.83 23.131 6.492 22.942 6.221 22.695 C 5.82 22.327 5.588 21.831 5.533 21.313 C 5.469 20.704 5.654 20.055 6.111 19.577 C 6.341 19.336 6.631 19.145 7.017 18.994 C 7.421 18.838 7.867 18.744 8.553 18.606 C 8.734 18.569 8.914 18.533 9.095 18.496 C 9.332 18.448 9.536 18.388 9.701 18.187 C 9.865 17.986 9.885 17.749 9.885 17.507 C 9.885 15.599 9.885 7.12 9.885 7.12 C 9.885 6.981 9.896 6.886 9.903 6.839 C 9.937 6.621 10.024 6.433 10.182 6.3 C 10.314 6.19 10.483 6.113 10.7 6.068 L 10.703 6.067 L 19.002 4.392 C 19.074 4.378 19.674 4.271 19.741 4.265 C 20.189 4.226 20.442 4.521 20.442 4.999 L 20.442 18.17 L 20.441 18.17 Z" fill="currentColor" fill-rule="evenodd"></path>
</svg>
