<svg xmlns="http://www.w3.org/2000/svg" width="30" height="16.875" viewBox="0 0 30 16.875" fill="none">
  <path d="M 25.313 9.375 C 25.137 9.375 24.971 9.365 24.814 9.346 C 24.658 9.326 24.502 9.297 24.346 9.258 C 24.229 10.332 23.936 11.328 23.467 12.246 C 22.979 13.184 22.358 13.994 21.606 14.678 C 20.854 15.361 20 15.898 19.043 16.289 C 18.066 16.68 17.031 16.875 15.938 16.875 C 15.684 16.875 15.464 16.782 15.278 16.597 C 15.093 16.411 15 16.191 15 15.938 L 15 0.938 C 15 0.684 15.093 0.464 15.278 0.278 C 15.464 0.093 15.684 0 15.938 0 L 25.313 0 C 26.602 0 27.705 0.459 28.623 1.377 C 29.541 2.295 30 3.398 30 4.688 C 30 5.977 29.541 7.08 28.623 7.998 C 27.705 8.916 26.602 9.375 25.313 9.375 Z M 12.188 15 C 11.934 15 11.714 14.907 11.528 14.722 C 11.343 14.536 11.25 14.316 11.25 14.063 L 11.25 0.938 C 11.25 0.684 11.343 0.464 11.528 0.278 C 11.714 0.093 11.934 0 12.188 0 C 12.441 0 12.661 0.093 12.847 0.278 C 13.032 0.464 13.125 0.684 13.125 0.938 L 13.125 14.063 C 13.125 14.316 13.032 14.536 12.847 14.722 C 12.661 14.907 12.441 15 12.188 15 Z M 8.438 11.25 C 8.184 11.25 7.964 11.157 7.778 10.972 C 7.593 10.786 7.5 10.566 7.5 10.313 L 7.5 0.938 C 7.5 0.684 7.593 0.464 7.778 0.278 C 7.964 0.093 8.184 0 8.438 0 C 8.691 0 8.911 0.093 9.097 0.278 C 9.282 0.464 9.375 0.684 9.375 0.938 L 9.375 10.313 C 9.375 10.566 9.282 10.786 9.097 10.972 C 8.911 11.157 8.691 11.25 8.438 11.25 Z M 4.688 11.25 C 4.434 11.25 4.214 11.157 4.028 10.972 C 3.843 10.786 3.75 10.566 3.75 10.313 L 3.75 0.938 C 3.75 0.684 3.843 0.464 4.028 0.278 C 4.214 0.093 4.434 0 4.688 0 C 4.941 0 5.161 0.093 5.347 0.278 C 5.532 0.464 5.625 0.684 5.625 0.938 L 5.625 10.313 C 5.625 10.566 5.532 10.786 5.347 10.972 C 5.161 11.157 4.941 11.25 4.688 11.25 Z M 0.938 8.438 C 0.684 8.438 0.464 8.345 0.278 8.159 C 0.093 7.974 0 7.754 0 7.5 L 0 1.875 C 0 1.621 0.093 1.401 0.278 1.216 C 0.464 1.03 0.684 0.938 0.938 0.938 C 1.191 0.938 1.411 1.03 1.597 1.216 C 1.782 1.401 1.875 1.621 1.875 1.875 L 1.875 7.5 C 1.875 7.754 1.782 7.974 1.597 8.159 C 1.411 8.345 1.191 8.438 0.938 8.438 Z" fill="currentColor" fill-rule="nonzero"></path>
</svg>
