<svg xmlns="http://www.w3.org/2000/svg" width="47.853" height="47.852" viewBox="0 0 47.853 47.852" fill="none">
  <path d="M 23.927 0 C 10.713 0 0 10.712 0 23.926 C 0 37.141 10.713 47.852 23.927 47.852 C 37.142 47.852 47.853 37.141 47.853 23.926 C 47.853 10.713 37.142 0.001 23.926 0.001 L 23.927 0 Z M 34.899 34.509 C 34.471 35.211 33.551 35.434 32.848 35.003 C 27.23 31.571 20.158 30.794 11.829 32.697 C 11.027 32.88 10.227 32.377 10.044 31.574 C 9.86 30.771 10.361 29.971 11.166 29.789 C 20.28 27.705 28.098 28.603 34.405 32.457 C 35.108 32.889 35.331 33.806 34.899 34.509 Z M 37.828 27.993 C 37.288 28.871 36.139 29.149 35.262 28.609 C 28.831 24.655 19.027 23.51 11.42 25.819 C 10.433 26.117 9.391 25.561 9.092 24.576 C 8.795 23.589 9.351 22.549 10.336 22.249 C 19.025 19.613 29.828 20.89 37.213 25.429 C 38.091 25.969 38.368 27.117 37.828 27.993 Z M 38.079 21.209 C 30.368 16.629 17.645 16.207 10.282 18.442 C 9.1 18.801 7.85 18.133 7.491 16.951 C 7.133 15.768 7.8 14.519 8.983 14.159 C 17.435 11.593 31.485 12.089 40.363 17.36 C 41.429 17.991 41.777 19.364 41.146 20.426 C 40.517 21.49 39.14 21.84 38.08 21.209 L 38.079 21.209 Z" fill="currentColor" fill-rule="nonzero"></path>
</svg>
