<svg xmlns="http://www.w3.org/2000/svg" width="1449.077" height="678.296" viewBox="0 0 1449.077 678.296" fill="none">
  <path d="M 668.1 1.564 C 673.678 -1.55 684.328 0.332 689.805 4.165 C 697.716 9.743 703.734 14.432 711.408 20.592 C 708.386 27.549 704.031 33.83 698.595 39.071 C 695.214 42.767 693.118 49.543 686.153 48.482 L 679.223 45.061 C 670.094 55.122 660.966 64.327 652.615 74.73 C 648.389 79.966 645.11 86.229 639.667 90.198 C 637.436 91.807 635.542 97.727 634.765 99.78 L 640.647 100.567 C 629.964 114.769 630.065 107.412 617.15 124.044 C 612.963 128.824 608.444 133.296 603.627 137.425 C 601.429 139.547 600.245 144.884 597.067 146.767 C 586.553 152.995 589.224 152.859 583.273 163.125 L 573.571 179.825 C 585.776 172.433 581.719 171.612 587.095 163.741 L 592.47 155.904 C 594.602 156.226 596.78 155.876 598.709 154.902 C 600.638 153.929 602.225 152.379 603.255 150.463 C 609.239 139.067 615.122 144.2 631.992 118.055 C 634.426 114.222 638.754 112.203 641.83 109.294 C 644.907 106.385 644.467 100.773 649.505 98.549 C 659.85 93.929 660.121 82.773 671.649 74.594 C 671.384 73.032 671.466 71.429 671.887 69.902 C 672.308 68.376 673.058 66.962 674.084 65.765 L 678.716 59.33 L 685.477 51.836 L 689.602 52.555 C 692.34 53.068 696.702 42.289 702.179 37.874 L 714.992 27.265 C 714.733 30.699 713.759 34.04 712.133 37.065 C 710.507 40.091 708.267 42.734 705.56 44.82 C 695.307 54.064 686.415 64.748 679.155 76.544 C 689.297 78.152 688.487 69.118 699.44 72.267 C 696.06 76.818 691.056 79.795 688.757 83.799 C 684.125 91.875 680.879 100.157 674.929 107.207 C 654.914 130.957 667.457 133.831 646.665 135.679 C 644.076 136.022 641.621 137.047 639.545 138.65 C 637.469 140.254 635.844 142.38 634.832 144.816 C 631.654 157.17 630.572 149.813 623.607 167.505 C 621.754 172.623 619.422 177.551 616.643 182.221 L 608.9 195.02 C 608.292 196.047 608.9 200.496 599.941 214.115 C 599.299 215.108 599.941 218.153 599.941 219.146 C 599.941 220.138 597 221.439 596.561 222.568 L 592.335 232.39 L 589.225 240.671 L 576.613 264.969 C 572.962 271.813 570.224 277.733 566.775 284.201 C 561.941 293.27 560.724 304.564 554.841 314.009 C 548.591 324.799 543.588 336.282 539.932 348.23 C 536.871 356.28 533.255 364.101 529.112 371.638 C 527.118 375.607 526.205 381.904 523.229 385.326 L 524.278 387.653 C 524.515 388.235 522.724 389.433 522.419 390.117 C 520.453 394.488 518.791 398.994 517.448 403.601 C 512.783 418.932 513.155 404.217 507.306 425.742 C 502.978 441.244 502.472 435.256 497.164 451.647 C 492.397 450.039 486.751 480.531 482.187 490.284 L 475.087 505.479 C 473.329 509.277 472.72 512.665 471.367 516.293 L 462.814 539.118 C 459.603 547.708 457.033 555.682 453.517 564.237 L 450.136 572.416 C 449.02 575.12 448.412 578.234 447.397 580.835 L 438.37 604.003 C 436.68 608.315 436.883 615.091 434.787 619.061 C 425.456 636.787 425.861 640.449 421.602 660.4 C 420.587 665.123 419.809 672.584 416.158 676.143 C 405.576 683.158 383.432 670.667 383.702 672.104 C 382.248 663.823 384.209 665.431 382.079 661.838 C 378.225 664.884 375.825 667.621 373.12 668.237 C 369.275 668.298 365.479 667.355 362.099 665.499 C 358.106 655.2 357.854 643.801 361.389 633.331 L 368.15 610.778 C 369.165 607.355 373.391 588.876 373.661 585.317 C 373.662 583.606 376.637 581.109 377.955 579.945 L 385.765 549.864 C 386.847 545.792 391.579 541.309 392.222 537.031 C 392.729 533.609 392.425 528.374 394.081 526.457 C 395.358 525.31 396.382 523.902 397.087 522.328 C 397.792 520.754 398.161 519.048 398.172 517.319 C 398.747 509.962 402.939 503.186 406.252 496.786 C 410.14 489.189 411.628 480.907 414.299 472.831 C 418.491 460.34 412.642 465.097 421.061 453.735 C 424.29 449.173 426.715 444.078 428.228 438.678 L 434.448 419.582 C 436.578 413.012 441.211 408.049 444.22 402.095 C 446.147 398.467 446.925 392.958 448.852 388.783 L 454.396 376.805 L 460.955 365.957 C 464.167 360.653 466.905 354.698 469.137 351.139 L 475.391 341.078 C 478.673 336.048 481.395 330.665 483.505 325.027 L 488.035 312.331 C 502.944 301.209 494.087 301.654 506.495 292.175 C 511.704 280.243 518.532 269.105 526.78 259.082 C 529.552 255.968 531.615 250.151 534.488 247.447 C 538.776 243.251 542.22 238.253 544.631 232.731 C 546.186 229.686 550.142 228.146 549.466 222.979 C 549.553 221.25 550.034 219.565 550.873 218.057 C 551.712 216.549 552.885 215.258 554.3 214.286 L 556.531 205.56 C 561.389 201.288 564.488 195.33 565.22 188.859 L 570.731 184.479 L 568.838 181.981 C 568.229 181.229 566.167 183.11 565.457 184.068 C 562.583 188.996 559.033 194.335 555.821 198.818 C 544.935 214.765 545.138 218.77 532.426 234.683 C 530.914 237.167 529.614 239.778 528.538 242.485 C 526.979 244.681 525.308 246.794 523.534 248.816 C 519.139 255.969 515.183 264.319 506.63 268.665 C 503.452 270.239 503.452 273.866 502.167 276.535 C 500.578 279.957 492.498 292.996 489.252 295.46 C 487.46 297.753 486.345 303.776 484.587 306.309 L 472.957 322.393 C 473.663 318.174 486.163 285.68 486.243 285.468 C 487.765 282.354 490.807 279.889 491.483 276.193 C 494.125 266.077 497.891 256.295 502.708 247.036 C 504.777 243.93 506.5 240.602 507.847 237.112 L 519.173 209.29 C 512.952 224.553 534.86 178.32 532.088 184.343 L 536.28 175.239 L 539.661 168.737 C 540.27 167.574 539.999 164.666 540.945 164.494 L 546.321 163.467 L 547.133 153.714 C 547.302 151.866 541.487 151.626 539.83 153.063 C 537.464 155.219 533.068 154.364 529.688 152.79 C 522.926 157.307 514.271 157.239 506.394 159.019 L 493.31 161.927 L 480.293 164.733 L 467.986 167.095 C 460.409 168.467 452.905 170.226 445.504 172.365 L 430.459 176.916 C 426.931 177.843 423.353 178.564 419.742 179.072 C 412.121 181.098 404.257 182.031 396.38 181.844 C 393.078 183.844 389.604 185.54 386.001 186.909 L 362.504 194.746 C 378.766 201.146 368.928 202.411 383.263 209.563 C 388.3 212.096 392.628 216.99 397.226 219.83 C 401.271 221.869 404.366 225.433 405.847 229.755 C 409.227 238.139 410.952 245.292 407.199 253.71 C 404.658 260.665 399.899 266.566 393.676 270.479 L 380.828 262.196 C 377.956 255.49 375.759 248.508 374.27 241.355 C 370.009 226.298 330.69 229.07 320.514 231.671 C 311.893 233.895 303.407 236.188 295.057 239.063 L 285.421 242.485 L 277.746 244.675 C 264.459 248.542 261.044 255.797 251.037 256.481 C 245.729 256.824 240.894 263.326 236.432 265.242 L 235.049 265.781 C 228.827 268.012 222.881 270.966 217.33 274.585 L 204.382 283.757 C 201.001 286.221 199.243 288.513 194.239 286.699 L 186.294 298.438 C 183.179 299.023 180.226 300.284 177.639 302.134 L 163.575 313.803 L 137.914 335.5 C 137.236 336.189 136.614 336.933 136.055 337.724 C 135.615 338.34 138.184 339.982 139.029 339.948 L 152.823 339.47 L 143.661 354.082 C 138.793 361.816 139.097 365.273 133.756 370.816 C 132.775 371.843 130.679 373.623 131.051 374.615 L 132.741 378.961 L 126.825 390.186 C 132.167 391.794 131.254 385.155 133.587 382.999 C 138.59 378.311 142.208 371.056 147.786 362.809 C 149.882 359.729 152.485 357.299 151.539 353.021 C 149.68 344.398 158.707 345.458 166.415 337.074 C 171.366 337.619 176.371 337.4 181.257 336.424 C 187.41 334.918 193.09 336.423 198.668 336.902 C 204.246 337.381 210.907 329.717 217.567 334.679 C 219.393 336.047 222.773 336.628 224.159 335.123 C 225.545 333.617 227.54 331.428 228.521 331.701 L 233.423 333.72 L 243.228 334.781 C 244.375 335.749 245.736 336.425 247.194 336.752 C 248.653 337.079 250.168 337.049 251.612 336.663 L 267.536 335.055 C 273.148 334.473 279.977 339.572 285.556 341.625 L 301.446 347.443 C 307.835 349.805 301.075 359.009 298.606 362.397 L 293.23 369.824 C 291.692 373.098 290.337 376.456 289.174 379.885 C 282.818 392.581 271.965 404.456 274.568 414.106 L 289.512 396.585 C 293.535 391.862 289.884 385.121 291.912 380.125 C 294.211 374.547 299.857 369.858 301.581 363.014 C 302.681 359.644 304.167 356.417 306.01 353.397 C 318.35 365.58 332.381 372.698 341.915 385.36 C 343.335 387.345 339.413 392.924 338.095 394.532 C 338.399 396.141 339.684 398.844 339.346 400.042 C 338.526 401.625 337.527 403.106 336.37 404.456 L 330.42 413.148 L 323.658 422.56 L 306.923 445.111 C 302.764 450.724 301.04 463.078 297.051 464.413 C 288.464 467.356 297.05 470.367 278.794 484.192 L 269.632 491.037 L 259.489 498.531 C 257.981 499.077 256.432 499.501 254.857 499.798 C 253.911 500.106 254.283 501.783 254.249 503.631 C 251.53 503.367 248.793 503.867 246.336 505.074 C 243.879 506.281 241.798 508.15 240.32 510.475 C 237.649 513.897 212.868 523.821 207.053 523.582 C 203.672 528.236 201.609 533.848 194.138 534.054 C 190.757 534.054 186.294 538.469 183.42 539.393 C 175.977 541.54 168.728 544.321 161.749 547.708 L 152.925 547.708 C 145.284 559.823 133.688 549.453 122.125 563.039 L 110.36 563.279 C 106.067 564.922 81.827 572.655 79.426 569.815 L 72.664 572.519 C 70.618 572.003 68.46 572.207 66.543 573.096 C 64.626 573.985 63.065 575.508 62.115 577.413 L 49.775 578.439 C 45.346 581.075 42.202 582.101 37.672 579.739 L 28.813 575.12 C 23.878 572.554 19.043 570.637 14.006 568.275 C 11.605 567.215 12.315 560.472 13.431 558.214 L 17.15 550.72 C 27.732 529.331 27.056 539.426 31.789 523.068 L 44.23 522.35 C 56.063 508.935 60.323 518.927 69.384 509.038 C 74.349 507.564 79.217 505.769 83.956 503.665 L 97.242 497.437 C 98.392 496.923 101.908 497.71 102.956 497.437 C 104.004 497.163 105.086 494.288 105.999 492.953 C 111.713 490.9 118.373 489.531 123.579 487.067 L 138.05 480.223 C 149.787 474.27 162.002 469.337 174.563 465.474 C 178.789 464.31 182.812 458.629 186.937 457.705 C 192.582 456.473 195.186 453.359 199.445 450.861 L 212.293 442.956 L 224.7 437.001 C 237.851 427.915 250.368 417.921 262.16 407.091 C 265.22 403.086 268.614 399.354 272.303 395.935 C 273.858 394.463 272.506 388.921 271.12 388.886 C 263.513 393.951 257.427 382.52 247.454 391.589 C 233.931 387.653 238.934 392.375 221.658 388.748 C 219.828 388.605 217.987 388.834 216.245 389.422 C 214.503 390.01 212.895 390.944 211.516 392.171 L 204.348 393.848 L 190.824 389.81 C 189.134 391.966 187.443 394.806 185.651 395.319 C 183.859 395.832 179.803 393.574 177.605 392.205 C 169.291 396.131 160.242 398.195 151.074 398.262 L 126.148 398.262 L 125.371 392.171 C 120.536 397.304 113.504 400.692 106.675 397.749 C 101.874 395.696 97.412 394.327 92.138 392.41 C 88.182 391.041 84.598 383.786 81.048 382.144 C 78.182 380.841 75.247 379.699 72.258 378.722 C 68.404 377.353 62.116 370.954 61.946 366.607 C 61.777 362.261 61.473 359.25 58.024 357.06 C 56.774 356.238 58.599 352.987 59.951 352.474 C 67.896 349.531 58.464 346.861 64.651 337.689 C 66.477 335.02 68.607 332.214 70.061 329.784 L 74.692 322.017 C 76.822 318.595 77.329 314.83 81.217 312.605 C 85.826 309.598 89.992 305.945 93.591 301.757 L 99.711 295.563 L 104.612 293.476 C 103.902 288.377 107.993 287.931 110.833 285.775 C 118.846 279.581 125.979 272.087 134.499 266.611 L 146.501 258.911 L 155.292 253.265 L 159.89 252.136 C 161.005 251.862 161.276 248.714 161.851 247.276 L 174.968 239.815 C 177.921 238.056 181.143 236.808 184.502 236.12 L 187.443 230.815 C 188.153 229.515 192.751 230.336 194.205 229.652 L 209.486 222.055 C 212.609 220.709 215.26 218.444 217.094 215.553 L 230.854 211.446 C 240.692 199.708 244.377 210.316 256.751 200.632 C 259.078 198.989 261.799 198.007 264.629 197.791 C 265.508 197.792 266.116 200.871 265.508 201.556 L 262.465 204.978 C 263.88 204.719 265.213 204.12 266.353 203.232 L 274.162 194.814 C 289.511 192.042 304.219 189.681 319.771 188.415 C 326.532 187.868 333.294 190.194 340.056 191.837 C 343.436 192.59 349.927 190.674 352.699 191.837 C 355.35 193.284 358.257 194.191 361.253 194.506 L 352.159 185.745 C 350.731 181.361 347.642 177.731 343.571 175.65 C 342.315 172.755 342.019 169.525 342.727 166.444 C 345.499 159.087 353.376 159.018 358.549 156.178 C 362.268 154.193 364.33 150.908 369.401 151.353 C 372.782 151.66 376.366 149.265 379.544 148.204 L 398.07 141.873 L 422.684 134.755 C 425.003 133.688 427.445 132.917 429.952 132.462 C 434.55 132.462 437.559 130.067 441.143 129.04 L 459.873 123.839 C 463.597 122.857 467.22 121.517 470.691 119.835 C 474.41 118.021 481.274 119.424 485.128 118.089 L 497.164 113.846 C 518.26 106.386 505.751 113.846 529.181 106.352 L 540.168 102.929 C 548.958 100.191 559.541 101.902 568.229 98.172 C 579.623 93.313 583.172 96.495 588.818 87.632 C 597.169 73.614 607.071 60.605 618.333 48.858 C 620.794 46.417 622.467 43.28 623.134 39.858 C 629.895 35.136 635.643 30.653 638.72 22.337 C 639.633 19.907 643.69 18.435 645.481 17.101 L 653.055 10.976 C 654.644 9.709 657.449 6.287 658.802 4.986 C 662.098 4.494 665.261 3.33 668.1 1.564 Z M 422.582 582.375 L 415.989 589.219 C 414.096 591.169 415.313 597.467 415.989 599.862 L 415.981 599.928 C 419.429 600.292 426.542 581.634 422.582 582.375 Z M 703.869 266.304 C 716.108 269.007 735.954 264.216 743.29 271.437 C 746.502 274.585 744.541 280.882 743.29 284.612 C 741.431 289.814 740.653 294.879 739.301 299.909 C 737.425 305.411 735.878 311.022 734.669 316.712 C 733.215 327.937 728.888 336.903 724.695 347.203 C 723.174 350.899 723.546 356.477 721.585 360.002 C 717.156 367.839 716.04 376.702 713.538 385.395 L 709.38 399.904 C 708.23 403.84 702.619 406.509 704.681 412.601 C 705.289 414.483 702.99 418.624 702.449 420.678 C 699.237 433.34 696.465 446.31 690.785 458.15 C 689.433 460.922 686.052 461.846 687.404 466.227 C 687.489 467.465 687.33 468.708 686.936 469.883 C 686.541 471.058 685.918 472.141 685.105 473.07 C 676.586 481.728 683.922 494.63 671.582 501.577 C 671.911 507.976 670.968 514.376 668.81 520.399 C 667.322 524.677 666.916 529.332 664.279 532.788 C 663.155 534.807 662.539 537.076 662.487 539.393 C 658.599 561.739 666.308 548.427 657.552 572.484 L 656.85 573.703 C 652.184 586.777 651.563 592.941 636.759 598.014 C 620.801 592.401 607.075 593.941 589.697 587.508 C 588.023 580.653 588.023 573.488 589.697 566.633 L 595.885 534.704 C 597.539 528.685 600.008 522.927 603.221 517.593 C 604.192 505.863 606.834 494.336 611.064 483.371 L 615.121 473.104 C 617.623 466.637 618.029 458.184 619.821 451.613 C 629.794 447.37 621.714 436.898 630.471 419.445 C 632.837 414.689 634.595 410.48 636.691 405.552 C 638.788 400.624 642.203 395.285 642.946 389.228 C 643.927 381.631 648.017 376.737 651.161 370.543 L 660.188 352.781 C 661.845 349.359 658.464 343.713 664.888 341.831 L 668.641 329.135 C 671.65 325.165 675.402 323.043 674.05 317.226 C 673.475 314.796 677.431 312.879 677.972 311.271 L 681.894 300.491 C 682.351 299.104 683.134 297.848 684.177 296.835 C 685.219 295.822 686.49 295.08 687.878 294.673 L 687.337 288.719 C 695.552 283.551 690.414 279.274 703.869 266.304 Z M 1264.888 137.219 C 1263.434 133.009 1268.472 126.097 1273.272 127.637 C 1296.938 135.337 1309.887 126.918 1308.906 142.489 L 1323.951 140.607 C 1326.123 140.255 1328.349 140.478 1330.409 141.257 C 1331.592 142.215 1332.066 144.987 1332.979 148.102 C 1336.174 146.747 1338.82 144.333 1340.483 141.257 C 1341.983 139.57 1343.981 138.417 1346.179 137.967 C 1348.376 137.517 1350.659 137.794 1352.688 138.759 L 1359.45 143.14 L 1337.272 182.734 L 1327.13 186.738 C 1316.108 187.217 1311.442 191.426 1296.229 191.426 L 1305.12 168.43 C 1283.922 189.202 1269.316 203.746 1255.691 230.028 C 1255.354 230.713 1259.073 230.61 1259.242 230.028 C 1260.831 226.264 1267.052 221.302 1271.21 224.484 C 1274.591 227.667 1268.776 232.321 1267.829 235.436 C 1266.646 239.987 1265.834 245.189 1261.067 247.208 L 1259.005 259.048 C 1257.493 264.081 1255.523 268.962 1253.122 273.627 C 1250.755 279.205 1248.828 290.738 1240.681 296.624 L 1240.681 306.138 C 1237.793 310.232 1235.388 314.654 1233.514 319.313 C 1241.053 321.092 1244.028 315.891 1249.065 311.75 C 1250.384 313.533 1251.074 315.712 1251.025 317.939 C 1250.976 320.167 1250.191 322.313 1248.795 324.035 C 1246.736 326.142 1244.869 328.433 1243.217 330.88 C 1241.628 332.967 1236.691 333.754 1235.339 337.519 C 1233.759 341.009 1231.736 344.276 1229.321 347.237 C 1229.825 349.147 1230.186 351.092 1230.403 353.056 C 1230.403 354.527 1227.022 356.478 1225.737 357.299 L 1223.878 358.291 C 1223.54 358.291 1223.101 359.968 1223.473 360.07 L 1227.022 360.892 C 1228.239 361.165 1226.381 364.313 1225.975 365.751 C 1224.646 369.505 1222.374 372.843 1219.382 375.437 C 1216.711 378.551 1218.3 384.95 1212.417 387.277 C 1210.49 388.03 1210.186 393.403 1212.012 395.49 C 1217.064 387.47 1221.658 379.163 1225.771 370.611 C 1228.713 365.239 1233.276 360.824 1235.609 354.664 C 1237.39 351.865 1239.308 349.157 1241.357 346.553 C 1251.162 327.149 1259.377 318.56 1268.641 301.483 C 1282.164 298.061 1283.922 287.795 1295.992 287.145 C 1300.387 286.939 1301.435 281.396 1303.666 279.958 C 1309.737 276.319 1315.575 272.295 1321.146 267.912 C 1328.152 262.705 1334.774 256.985 1340.957 250.801 C 1343.575 248.357 1346.566 246.359 1349.814 244.881 C 1355.393 241.459 1359.349 233.826 1364.759 229.583 C 1367.281 227.85 1369.152 225.306 1370.066 222.362 L 1373.041 222.089 C 1373.041 216.579 1378.112 212.883 1382.812 211.138 C 1382.203 203.472 1393.563 194.883 1387.883 187.525 L 1380.276 182.871 L 1371.283 186.293 C 1369.162 184.787 1366.702 183.842 1364.128 183.543 C 1361.554 183.244 1358.946 183.602 1356.543 184.582 C 1353.162 185.882 1344.642 185.745 1344.507 180.646 C 1344.236 171.338 1357.354 161.585 1359.721 149.196 L 1368.038 144.337 C 1370.134 142.763 1372.67 139.649 1374.8 139.272 C 1377.403 138.759 1381.325 141.12 1383.962 141.839 C 1389.135 143.173 1395.66 142.421 1399.886 145.843 C 1401.035 146.733 1402.962 149.573 1404.247 150.052 C 1417.601 155.048 1411.853 157.924 1425.444 165.247 C 1426.83 170.243 1428.082 172.638 1432.747 174.589 L 1439.509 177.293 C 1441.672 184.137 1428.927 184.719 1430.786 191.871 C 1437.852 190.708 1440.929 178.457 1446.846 181.913 C 1448.604 194.37 1451.038 208.298 1446.406 219.762 C 1445.189 222.807 1439.644 223.184 1441.47 228.83 C 1442.585 232.252 1439.339 235.674 1437.176 238.344 C 1424.193 254.907 1434.944 247.72 1423.652 257.474 C 1423.28 259.185 1422.131 262.813 1420.542 263.292 C 1416.79 264.387 1416.012 270.135 1414.018 271.744 C 1408.048 276.874 1402.507 282.494 1397.451 288.547 C 1392.617 294.57 1385.01 298.061 1379.499 303.365 C 1371.275 311.486 1362.335 318.829 1352.79 325.302 L 1345.217 329.545 L 1341.498 334.028 C 1336.34 337.345 1331.404 341.003 1326.724 344.979 C 1322.903 348.058 1315.499 348.88 1312.017 353.466 C 1304.275 357.333 1302.381 358.599 1294.504 363.082 C 1285.815 368.078 1279.189 377.352 1268.404 377.626 C 1270.379 374.745 1271.811 371.519 1272.63 368.112 C 1263.028 374.067 1266.274 385.908 1253.359 389.057 C 1244.852 391.06 1236.936 395.084 1230.268 400.795 C 1226.887 404.217 1226.887 405.723 1221.309 405.791 C 1215.73 405.859 1211.166 411.882 1206.67 414.962 L 1196.527 415.955 C 1192.47 424.077 1189.176 432.566 1186.688 441.313 L 1195.918 441.107 L 1209.441 449.355 C 1213.476 451.755 1217.973 453.248 1222.627 453.735 C 1227.326 454.386 1232.567 460.135 1236.895 461.265 C 1251.331 464.995 1262.082 471.907 1273.915 480.188 C 1279.696 484.227 1288.925 484.193 1295.112 489.395 C 1305.931 498.532 1320.672 497.676 1331.524 504.075 C 1342.327 510.512 1353.703 515.91 1365.502 520.194 C 1379.735 525.328 1373.413 536.86 1375.645 549.591 C 1359.687 561.157 1344.338 556.435 1328.313 548.222 C 1303.362 535.56 1307.047 545.176 1296.093 537.784 C 1289.893 534.172 1283.36 531.179 1276.586 528.852 L 1265.632 524.301 C 1262.86 521.461 1261 518.141 1256.673 517.114 C 1253.292 516.293 1229.833 501.751 1228.206 501.201 L 1218.503 497.95 L 1209.543 497.368 C 1207.863 495.393 1205.79 493.798 1203.46 492.689 C 1201.13 491.581 1198.594 490.983 1196.02 490.935 L 1184.457 482.79 C 1182.261 481.685 1179.862 481.052 1177.412 480.935 C 1174.962 480.817 1172.514 481.216 1170.224 482.105 C 1162.516 487.376 1161.197 497.334 1157.479 504.862 C 1155.585 508.695 1154.097 512.049 1152.609 516.019 L 1139.56 548.188 L 1132.595 561.603 C 1131.714 569.799 1129.084 577.704 1124.887 584.771 L 1115.792 597.604 C 1112.107 591.957 1116.57 590.964 1119.173 576.694 C 1120.424 570.021 1129.315 574.64 1124.143 547.058 C 1111.566 558.18 1110.416 578.713 1107.61 593.257 L 1088.881 591.478 C 1085.263 591.135 1078.738 590.178 1076.676 587.816 L 1074.241 574.777 C 1073.422 569.896 1074.022 564.879 1075.966 560.336 C 1077.96 554.929 1077.893 547.503 1080.361 542.609 C 1083.073 537.28 1085.062 531.605 1086.277 525.738 C 1088.272 516.875 1098.38 494.153 1097.604 497.642 L 1100.105 486.417 C 1100.849 482.995 1103.486 479.23 1104.398 476.321 L 1108.32 462.359 C 1105.785 457.774 1098.178 454.077 1093.106 452.4 L 1090.977 447.575 C 1085.161 450.073 1076.372 443.024 1074.31 439.499 C 1073.464 438.028 1075.256 434.093 1076.405 432.655 C 1079.009 429.678 1078.67 427.796 1077.893 424.031 C 1077.385 421.499 1082.694 418.077 1084.182 415.955 C 1086.047 412.61 1088.693 409.777 1091.89 407.707 C 1103.08 401.821 1100.375 400.418 1117.212 391.691 C 1121.201 389.638 1125.327 390.801 1126.611 384.847 L 1135.874 381.117 L 1129.924 390.904 C 1128.538 393.231 1125.462 394.669 1125.631 398.57 C 1125.631 401.308 1122.824 403.292 1120.424 404.593 C 1118.023 405.893 1118.294 411.198 1117.043 413.217 C 1112.783 420.54 1107.881 427.83 1102.911 435.222 C 1107.306 437.48 1106.63 431.8 1108.422 430.431 C 1111.729 427.711 1114.466 424.347 1116.469 420.54 L 1122.317 412.19 L 1127.118 405.038 C 1132.543 397.067 1138.436 389.433 1144.766 382.178 C 1150.107 375.984 1154.232 362.604 1151.258 362.295 L 1148.316 362.021 L 1150.04 349.976 C 1160.182 345.732 1151.055 343.61 1160.183 336.287 C 1160.723 328.248 1163.969 320.638 1169.379 314.727 C 1170.549 309.37 1172.108 304.109 1174.044 298.985 L 1190.948 266.987 C 1193.02 263.518 1194.666 259.806 1195.851 255.934 C 1198.014 248.439 1204.405 244.538 1207.549 235.401 L 1211.91 222.808 L 1196.426 229.651 C 1193.214 231.02 1187.5 231.329 1186.283 235.812 C 1185.844 237.591 1182.023 238.584 1180.569 239.405 L 1162.719 249.672 C 1158.29 252.204 1148.08 260.417 1138.275 266.577 C 1134.117 269.178 1130.262 273.421 1125.698 275.782 C 1121.66 278.235 1118.39 281.794 1116.266 286.049 L 1107.881 290.703 L 1097.738 304.084 C 1091.619 309.217 1054.768 291.491 1065.62 286.563 C 1068.494 285.228 1068.189 280.471 1069.339 278.726 C 1080.732 261.375 1069.982 272.258 1084.723 258.809 L 1099.902 245.12 C 1101.965 243.238 1104.94 242.45 1107.272 239.952 L 1120.56 225.717 C 1121.472 224.724 1124.988 224.313 1125.867 224.073 C 1127.845 221.224 1130.575 218.995 1133.744 217.64 C 1147.437 212.814 1134.624 210.077 1155.01 206.415 L 1156.7 201.111 C 1164.788 198.056 1172.53 194.132 1179.792 189.407 C 1180.975 188.654 1185.54 189.065 1185.945 187.901 L 1187.534 183.11 C 1207.075 183.11 1200.415 172.844 1209.036 174.657 C 1215.054 175.889 1217.049 170.791 1219.179 167.813 C 1223.979 167.813 1229.321 168.771 1231.992 162.68 L 1244.096 160.969 C 1251.313 155.269 1256.471 147.318 1258.769 138.349 L 1264.888 137.219 Z M 25.737 529.879 C 24.655 533.849 20.632 537.715 18.976 541.274 C 14.952 549.625 12.552 555.58 3.288 563.896 L 2.82 563.375 C 0.878 560.733 -0.118 557.491 0.011 554.188 C 0.148 550.663 1.555 547.311 3.965 544.765 C 7.064 541.745 9.636 538.216 11.571 534.327 L 25.737 529.879 Z M 928.155 35.991 C 950.942 33.014 970.585 30.584 979.308 52.589 C 981.492 57.619 984.707 62.122 988.74 65.799 C 990.257 67.787 991.167 70.18 991.359 72.685 C 991.552 75.189 991.017 77.696 989.821 79.897 C 985.46 85.749 978.496 87.529 971.7 88.385 C 959.462 89.959 948.035 92.937 936.066 95.229 C 927.783 96.906 918.993 96.94 911.082 99.746 C 905.78 101.827 900.135 102.873 894.448 102.826 C 894.11 107.788 896.747 113.47 897.626 119.185 L 902.9 153.406 C 903.948 160.25 906.856 166.616 906.721 173.699 C 906.721 182.323 909.256 189.168 911.487 197.21 L 916.896 216.818 C 917.978 220.72 918.925 223.218 916.424 226.914 C 923.794 242.861 924.334 253.676 928.29 272.806 L 936.641 262.23 C 941.947 258.634 946.688 254.251 950.705 249.227 C 954.185 244.745 958.007 240.546 962.133 236.667 C 964.229 234.443 963.925 230.303 968.691 230.439 C 973.458 230.576 973.999 226.401 976.163 223.595 L 986.001 211.104 C 988.305 208.425 990.865 205.984 993.643 203.814 C 995.637 202.103 996.009 198.168 1000.133 198.1 C 1010.072 198.1 1002.196 186.157 1014.13 185.198 L 1018.086 174.932 L 1023.326 174.384 C 1024.577 174.383 1024.171 169.935 1024.61 168.737 L 1036.85 163.501 C 1037.053 156.212 1041.042 153.235 1044.693 149.025 C 1048.67 144.381 1053.757 140.846 1059.468 138.759 C 1067.041 127.603 1067.92 129.93 1079.212 118.432 C 1082.818 115.516 1086.209 112.336 1089.354 108.918 C 1090.829 106.78 1093.032 105.268 1095.541 104.674 C 1097.948 100.165 1101.436 96.341 1105.684 93.552 C 1108.591 92.08 1110.383 88.864 1112.445 86.913 L 1122.588 77.399 C 1126.138 73.977 1132.731 71.89 1135.334 67.133 C 1138.715 61.042 1144.699 60.699 1149.838 58.064 C 1154.977 55.429 1157.208 49.885 1164.409 54.437 L 1172.557 59.536 C 1172.003 62.349 1170.883 65.016 1169.266 67.371 C 1167.649 69.726 1165.57 71.719 1163.158 73.225 C 1159.203 75.312 1158.628 79.213 1156.396 82.738 C 1154.165 86.263 1148.519 89.856 1146.524 94.202 C 1143.685 100.362 1136.923 101.492 1133.475 105.838 L 1118.361 124.899 L 1090.808 159.806 C 1087.427 164.049 1084.688 167.54 1086.176 173.699 C 1087.393 178.661 1083.438 180.099 1081.037 183.042 C 1077.656 187.149 1076.202 192.693 1068.832 191.769 L 1066.601 197.997 C 1064.838 197.59 1063.033 197.406 1061.226 197.449 C 1060.177 197.449 1059.433 200.872 1059.129 201.933 L 1063.118 202.686 L 1060.65 212.438 C 1068.764 215.074 1065.181 203.575 1071.57 201.692 C 1077.081 200.084 1076.304 195.499 1078.771 192.385 L 1089.624 178.696 C 1092.388 175.698 1094.374 172.052 1095.405 168.087 L 1104.229 161.824 C 1108.422 146.801 1114.609 153.508 1116.164 140.333 C 1125.258 132.565 1125.157 127.432 1131.885 120.725 L 1150.277 102.382 C 1166.201 86.503 1153.658 93.929 1174.788 73.054 C 1177.156 70.482 1180.319 68.806 1183.756 68.302 C 1187.192 67.798 1190.696 68.496 1193.688 70.281 C 1203.999 75.517 1192.876 81.575 1201.902 92.286 C 1201.564 100.807 1191.76 103.751 1186.486 108.097 C 1181.212 112.443 1178.067 117.234 1173.165 121.785 L 1151.427 142.078 C 1150.345 143.105 1150.784 148.547 1149.533 148.718 L 1144.36 149.471 C 1131.344 161.927 1118.97 174.966 1106.528 188.483 C 1095.236 200.769 1083.167 211.241 1071.165 222.705 C 1063.721 230.234 1055.372 236.787 1046.315 242.211 C 1042.942 244.891 1040.136 248.232 1038.066 252.033 C 1030.257 263.805 1031.474 256.345 1019.607 264.798 C 1014.841 262.368 1032.048 247.688 1032.759 242.383 C 1023.292 248.166 1011.154 270.067 1004.055 278.144 C 999.518 282.828 995.389 287.901 991.715 293.305 L 986.847 293.544 C 985.731 293.544 986.171 297.89 985.19 298.849 L 954.965 327.731 L 943.673 336.458 C 943.345 346.118 945.55 355.694 950.063 364.212 C 944.247 373.109 937.79 381.939 932.55 391.589 C 930.623 395.011 931.434 398.912 926.667 400.418 L 921.9 411.369 C 922.854 414.177 923.984 416.92 925.281 419.582 C 929.541 414.552 932.55 411.266 936.37 406.064 C 943.774 395.798 947.494 380.125 951.179 376.908 C 953.883 374.547 950.638 385.737 953.85 395.148 C 957.061 404.559 956.52 414.381 958.887 424.031 L 961.456 434.298 L 966.122 458.014 C 967.542 465.166 965.716 475.124 969.503 481.421 C 976.467 492.474 974.067 504.041 964.397 512.665 C 949.758 525.669 952.43 508.764 926.465 514.753 C 921.369 516.239 915.927 515.95 911.014 513.932 C 904.016 510.03 905.165 502.365 903.711 495.452 L 903.736 495.104 C 902.05 487.836 895.559 481.848 897.423 474.234 C 899.316 466.5 905.57 460.888 906.111 452.641 C 902.055 455.105 901.074 459.485 898.877 463.352 L 894.955 465.337 C 893.468 466.09 893.332 460.101 890.932 451.99 C 889.85 448.568 890.323 442.58 888.734 439.021 C 879.538 418.248 885.151 419.685 878.795 402.916 L 871.593 409.932 L 865.136 416.468 C 858.893 422.172 853.395 428.658 848.772 435.77 C 846.128 440.038 842.242 443.374 837.649 445.317 L 834.539 452.161 C 828.862 457.471 823.5 463.116 818.48 469.066 C 816.887 471.087 815.034 472.883 812.97 474.405 C 811.448 478.786 810.535 483.201 804.72 483.577 L 802.15 491.858 C 796.77 496.385 792.027 501.636 788.053 507.464 C 783.996 513.726 776.997 519.305 773.853 525.67 C 771.723 530.016 772.365 533.712 768.274 536.347 C 764.184 538.982 760.6 537.27 755.63 537.305 C 749.172 537.305 739.875 538.982 733.823 537.031 C 732.539 536.62 732.573 531.83 733.587 530.666 C 735.852 527.997 733.892 521.632 734.771 518.552 C 736.112 513.04 738.098 507.709 740.687 502.673 L 747.753 491.14 C 750.796 486.143 754.075 480.873 757.422 476.185 C 765.4 464.857 762.02 466.5 772.331 454.762 C 776.474 449.703 780.303 444.389 783.793 438.849 L 793.293 425.4 C 796.674 420.575 797.958 415.647 803.773 413.628 L 806.14 406.133 C 814.026 399.736 820.871 392.127 826.425 383.581 C 829.535 378.448 834.235 375.368 838.225 371.09 C 840.422 368.728 841.606 363.013 844.986 360.823 L 853.878 354.526 L 858.002 345.492 C 860.605 343.336 865.035 339.983 865.981 337.074 L 862.938 317.636 L 856.177 280.471 C 853.472 265.961 865.305 260.246 867.874 251.52 C 861.113 254.36 860.943 261.376 854.824 264.832 C 847.319 230.063 845.729 196.081 842.349 161.312 C 840.692 144.201 837.48 128.424 837.446 112.135 L 822.301 113.366 C 821.016 113.366 818.92 110.184 819.427 109.191 L 822.503 103.853 C 821.725 103.545 818.514 104.229 818.311 105.324 L 817.229 110.971 L 810.197 114.633 C 809.652 114.854 809.065 114.947 808.479 114.905 C 807.894 114.864 807.325 114.689 806.816 114.394 C 804.078 111.416 812.225 101.15 815.302 97.967 C 820.779 92.252 825.107 86.948 830.753 80.343 C 831.53 84.586 828.048 86.195 825.952 90.096 L 830.955 99.302 C 834.336 83.149 838.495 91.978 836.669 72.506 C 836.474 68.953 836.793 65.391 837.615 61.932 C 823.382 68.126 819.055 82.875 811.888 93.415 L 801.137 108.473 L 794.138 112.717 L 785.551 116.96 C 792.312 118.226 801.035 119.903 804.314 127.021 C 806.579 131.915 801.981 138.622 800.46 143.345 C 798.026 150.736 798.026 160.763 793.09 166.786 C 787.248 173.255 782.926 180.976 780.445 189.373 C 775.374 207.955 772.602 206.86 770.134 224.826 C 761.513 228.419 753.602 221.679 747.043 216.956 C 741.87 213.876 733.519 216.545 729.36 211.274 L 722.836 202.686 L 722.836 185.779 C 722.603 178.723 725.019 171.839 729.598 166.513 C 734.128 160.935 731.964 151.832 735.345 145.672 C 736.731 143.105 742.377 141.497 740.923 136.809 C 739.131 130.957 749.747 128.013 751.269 118.876 L 746.028 116.789 L 754.143 105.838 C 753.586 105.259 752.908 104.813 752.159 104.534 C 751.41 104.255 750.609 104.15 749.814 104.226 C 749.02 104.301 748.253 104.556 747.568 104.971 C 746.884 105.386 746.3 105.951 745.859 106.625 C 738.388 117.815 741.295 117.815 730.206 122.88 C 707.047 123.256 695.383 131.435 672.495 131.436 C 672.022 128.146 672.794 124.796 674.658 122.059 L 681.42 111.792 C 684.53 106.898 685.85 103.921 691.09 101.115 C 695.823 98.583 696.938 91.191 699.677 86.742 L 707.081 74.696 C 707.69 73.738 708.433 69.666 709.447 70.042 L 714.891 71.992 C 716.987 68.297 720.571 69.324 724.797 68.229 L 742.141 63.677 L 753.398 63.095 C 756.538 62.578 759.589 61.61 762.459 60.221 L 765.84 61.418 C 766.854 61.794 768.883 60.289 770.066 59.125 C 775.408 53.992 778.18 60.7 780.209 59.399 L 784.705 56.251 C 786.835 54.779 792.042 56.25 795.592 55.224 L 807.83 51.254 C 813.577 49.406 819.764 51.459 825.782 50.262 C 831.8 49.064 838.123 46.84 843.363 47.661 C 845.569 48.366 847.906 48.546 850.192 48.19 C 852.479 47.834 854.654 46.951 856.549 45.607 C 862.803 41.843 873.453 45.848 877.341 46.669 C 880.045 47.25 879.674 39.825 886.536 39.824 C 900.972 39.106 913.888 37.873 928.155 35.991 Z M 1162.921 478.923 C 1162.921 478.341 1160.454 477.041 1160.149 477.554 L 1158.763 479.676 L 1154.808 485.732 C 1153.104 488.96 1151.862 492.417 1151.122 495.999 C 1151.854 499.193 1152.106 502.482 1151.866 505.752 C 1156.228 495.657 1164.645 489.6 1162.921 478.923 Z M 333.327 416.604 C 335.626 414.688 334.207 408.7 340.326 410.309 C 335.864 422.525 338.433 422.423 329.203 431.115 C 327.821 436.16 325.453 440.873 322.238 444.975 L 312.4 457.534 C 311.826 458.253 308.648 456.883 309.02 456.37 C 309.393 455.856 311.893 454.077 312.4 453.119 L 319.466 437.274 C 321.731 432.176 325.755 429.643 324.842 423.791 L 333.327 416.604 Z M 509.437 408.289 C 500.241 407.639 502.404 418.556 497.4 425.742 L 490.875 427.385 C 489.726 427.693 489.624 432.005 488.644 432.86 C 485.499 435.564 480.361 441.073 483.37 446.549 L 477.487 449.218 L 480.732 456.474 L 484.891 450.826 L 486.784 454.249 C 487.021 454.625 487.832 453.256 488.137 452.743 L 493.851 442.887 L 499.835 432.621 C 503.675 424.784 506.886 416.647 509.437 408.289 Z M 709.616 336.321 C 706.043 340.268 703.202 344.836 701.231 349.805 C 695.281 364.314 689.535 360.721 694.099 369.961 C 696.904 375.607 689.703 378.962 688.047 382.521 C 681.691 396.209 679.561 394.327 678.682 406.201 C 683.415 402.197 684.497 395.764 687.607 391.35 C 692.084 385.169 695.924 378.541 699.068 371.569 C 701.503 366.06 715.6 339.641 709.616 336.321 Z M 908.31 361.439 C 905.402 362.979 896.173 377.626 900.161 379.851 C 904.489 373.28 907.836 368.831 908.31 361.439 Z M 1304.443 340.462 C 1297.48 348.64 1315.769 324.173 1307.453 331.256 L 1306.101 332.42 L 1297.175 338.545 C 1297.175 350.42 1291.867 344.842 1287.235 353.637 C 1286.694 354.629 1288.655 357.367 1289.974 357.47 L 1304.443 340.462 Z M 1171.475 339.812 C 1170.46 351.515 1161.671 345.492 1163.327 352.713 C 1167.575 350.792 1171.013 347.409 1173.03 343.165 C 1175.363 339.367 1178.811 337.108 1179.589 332.043 L 1171.475 339.812 Z M 950.164 266.885 C 934.139 285.672 939.481 282.285 934.646 299.19 C 931.604 309.799 931.671 297.479 922.306 322.975 C 919.804 329.819 916.761 337.416 913.685 344.055 L 913.647 344.29 C 913.326 345.356 915.083 347.964 915.477 347.135 L 934.883 306.069 C 938.568 298.267 942.49 291.079 946.547 283.619 L 950.164 266.885 Z M 1233.514 263.668 C 1232.398 262.881 1229.659 260.93 1228.476 261.341 C 1227.292 261.752 1225.738 264.044 1224.825 265.413 L 1213.363 283.004 C 1207.616 287.59 1199.569 292.175 1196.459 298.985 L 1190.441 312.674 C 1192.988 310.79 1195.118 308.388 1196.696 305.624 C 1206.095 290.327 1206.399 299.738 1214.479 289.129 L 1223.473 277.494 C 1224.216 276.536 1224.149 272.874 1225.265 272.463 L 1229.017 271.129 C 1229.852 268.29 1231.402 265.719 1233.514 263.668 Z M 1418.852 195.156 C 1407.188 207.476 1396.538 218.53 1384.435 230.097 C 1382.39 232.731 1380.895 235.758 1380.04 238.994 C 1372.203 244.843 1366.014 252.665 1362.087 261.684 L 1352.79 270.376 C 1349.984 273.011 1347.719 277.494 1351.979 280.643 C 1357.509 275.146 1362.746 269.354 1367.666 263.292 L 1389.506 236.257 C 1394.824 230.034 1400.526 224.159 1406.579 218.667 C 1410.433 214.834 1412.598 203.678 1418.21 200.632 C 1419.461 199.947 1419.595 195.67 1418.852 195.156 Z M 778.484 80.582 C 769.863 80.993 772.771 86.263 761.58 94.271 C 760.982 94.537 760.454 94.94 760.036 95.448 C 759.618 95.956 759.323 96.556 759.172 97.199 C 759.021 97.842 759.02 98.512 759.168 99.156 C 759.316 99.8 759.61 100.401 760.025 100.91 L 768.105 91.636 C 771.655 87.563 778.248 87.495 778.484 80.582 Z" fill="currentColor" fill-rule="nonzero"></path>
</svg>
