<svg xmlns="http://www.w3.org/2000/svg" width="48" height="33.759" viewBox="0 0 48 33.759" fill="none">
  <path d="M 47.522 7.284 C 47.522 7.284 47.053 3.975 45.609 2.522 C 43.781 0.609 41.738 0.6 40.8 0.487 C 34.088 0 24.009 0 24.009 0 L 23.991 0 C 23.991 0 13.913 0 7.2 0.487 C 6.263 0.6 4.219 0.609 2.391 2.522 C 0.947 3.975 0.487 7.284 0.487 7.284 C 0.487 7.284 0 11.175 0 15.056 L 0 18.694 C 0 22.575 0.478 26.466 0.478 26.466 C 0.478 26.466 0.947 29.775 2.381 31.228 C 4.209 33.141 6.609 33.075 7.678 33.281 C 11.522 33.647 24 33.759 24 33.759 C 24 33.759 34.088 33.741 40.8 33.263 C 41.738 33.15 43.781 33.141 45.609 31.228 C 47.053 29.775 47.522 26.466 47.522 26.466 C 47.522 26.466 48 22.584 48 18.694 L 48 15.056 C 48 11.175 47.522 7.284 47.522 7.284 Z M 19.041 23.109 L 19.041 9.619 L 32.006 16.387 L 19.041 23.109 Z" fill="currentColor" fill-rule="nonzero"></path>
</svg>
